PathFileType	4	(X/Y/Z)	E:\3-PhD\Data\MocapData\ElaboratedData\009\pre\dynamicElaborations\RunN1\RunN1.trc
DataRate	CameraRate	NumFrames	NumMarkers	Units	OrigDataRate	DataStartFrame
200	200	4	54	mm	200	557
Frame#	Time	FHD			LBHD			RBHD			C7			T10			CLAV			LSHO			LUUPA			LMUPA			LDUPA			LLEP			LMEP			LRAD			LUL			LRFIN			RSHO			RUPA1			RMUPA			RDUPA			RLEP			RMEP			RRAD			RUL			RUFIN			RASI			USACR			LSACR			RSACR			LTHI1			LTHI2			LTHI3			LTHI4			LTIB1			LTIB2			LTIB3			LTIB4			LLMAL			LHEE			LMT1			LMT2			RTHI			RTHI2			RTHI3			RTHI4			RLFC			RTIB1			RTIB2			RTIB3			RTIB4			RLMAL			RHEE			RMT1			RMT2			RMT5		
		X1	Y1	Z1	X2	Y2	Z2	X3	Y3	Z3	X4	Y4	Z4	X5	Y5	Z5	X6	Y6	Z6	X7	Y7	Z7	X8	Y8	Z8	X9	Y9	Z9	X10	Y10	Z10	X11	Y11	Z11	X12	Y12	Z12	X13	Y13	Z13	X14	Y14	Z14	X15	Y15	Z15	X16	Y16	Z16	X17	Y17	Z17	X18	Y18	Z18	X19	Y19	Z19	X20	Y20	Z20	X21	Y21	Z21	X22	Y22	Z22	X23	Y23	Z23	X24	Y24	Z24	X25	Y25	Z25	X26	Y26	Z26	X27	Y27	Z27	X28	Y28	Z28	X29	Y29	Z29	X30	Y30	Z30	X31	Y31	Z31	X32	Y32	Z32	X33	Y33	Z33	X34	Y34	Z34	X35	Y35	Z35	X36	Y36	Z36	X37	Y37	Z37	X38	Y38	Z38	X39	Y39	Z39	X40	Y40	Z40	X41	Y41	Z41	X42	Y42	Z42	X43	Y43	Z43	X44	Y44	Z44	X45	Y45	Z45	X46	Y46	Z46	X47	Y47	Z47	X48	Y48	Z48	X49	Y49	Z49	X50	Y50	Z50	X51	Y51	Z51	X52	Y52	Z52	X53	Y53	Z53	X54	Y54	Z54	

656	3.275000	-209.482532	1548.257493	422.653012	-383.390886	1603.198782	339.347610	-345.857011	1577.118147	458.074558	-487.373646	1478.096571	382.308130	-658.695145	1163.513147	363.530303	-384.711493	1341.298446	357.649358	-422.777569	1421.746812	218.380504	-553.575403	1305.289159	108.845016	-538.081790	1259.253427	113.659266	-591.822340	1251.729099	86.906536	-670.034029	1169.675641	60.905983	-705.715587	1165.688226	129.201728	-679.509572	905.869224	80.170467	-743.048874	915.529809	42.504859	-678.758081	832.636526	39.282715	-413.560168	1419.480691	526.164425	-490.208352	1283.745865	621.122703	-466.085297	1242.965274	619.094303	-520.616169	1227.283937	652.276796	-549.509423	1095.058770	682.654180	-576.081201	1074.833271	619.613583	-317.032551	1008.047044	599.488592	-329.630608	960.853841	649.399500	-244.397179	1017.254711	634.278732	-544.583509	953.829772	469.118274	-698.926067	1084.056757	362.408545	-710.017300	1051.805437	335.886624	-708.628092	1055.052083	394.942617	-534.619651	745.635895	160.020176	-467.803972	692.185325	157.278887	-428.761132	712.606735	173.797917	-469.649740	629.955745	157.019240	-530.448453	452.968917	215.929710	-583.331442	505.346839	170.212829	-580.180114	469.192154	192.711125	-658.236907	458.960984	228.357241	-814.449507	496.964049	227.517683	-863.048913	571.509508	276.242904	-859.343849	350.493828	298.297561	-856.105455	348.070387	250.632810	-611.205351	711.643558	537.096816	-578.381564	655.966928	534.516622	-545.330710	652.100499	524.894582	-612.577467	579.681747	510.234805	-601.046577	470.015712	489.835243	-678.347709	276.920403	423.068394	-778.924780	246.505393	455.844929	-744.713009	222.457680	435.559593	-767.640871	187.199370	397.516647	-868.818778	139.302343	423.760628	-955.981701	129.307561	377.166447	-747.962219	55.454353	343.038386	-747.574373	54.416005	383.721783	-789.528271	38.418374	439.814415	
657	3.280000	-181.556305	1552.432152	421.486404	-355.575071	1607.509280	338.338063	-317.925722	1581.226276	456.992741	-460.008688	1482.000567	381.620388	-629.230498	1166.368897	364.499569	-356.993068	1345.933390	355.998678	-397.443530	1426.110579	216.694414	-530.852588	1311.302498	107.997879	-515.621025	1264.991428	112.061314	-569.838752	1258.270964	85.994829	-649.072575	1177.339891	60.517091	-683.916092	1173.481313	129.165664	-663.093186	913.552395	77.383141	-726.984210	925.250129	40.694141	-665.286153	840.058653	35.344871	-384.922824	1424.806884	524.590711	-458.562208	1287.713097	619.994546	-433.657305	1247.517894	617.835035	-487.598729	1230.608571	651.095443	-513.560262	1097.674790	681.115593	-539.678678	1077.186940	617.817837	-277.572633	1023.583138	593.729114	-287.446541	975.468565	643.146744	-205.159180	1035.888549	627.920268	-514.928698	955.131821	469.307323	-669.074496	1087.028374	363.631986	-680.424482	1054.845309	337.144878	-678.637394	1057.983594	396.195559	-499.653809	752.869751	161.106443	-430.465496	702.425805	159.099808	-392.384558	724.738695	175.481500	-429.492375	640.092921	159.508463	-482.701526	458.555948	217.190772	-538.160286	507.993072	171.523205	-533.020200	471.921234	193.851865	-610.704886	456.980629	228.666807	-769.026307	485.485194	226.465862	-822.623058	556.514050	275.295740	-804.687609	336.102580	296.096095	-800.908775	334.105602	248.199256	-588.255306	713.404842	536.996953	-557.359542	656.587280	534.372892	-524.458345	651.700662	524.706872	-594.305112	581.467263	510.703551	-587.028290	471.503924	490.595422	-668.718239	279.909213	424.754567	-769.850755	252.100311	457.599897	-736.094463	227.030777	437.731895	-759.646307	191.708930	399.652156	-862.203159	146.051472	425.778609	-949.183098	139.830162	379.252863	-746.524552	55.328769	343.314756	-746.011262	54.401281	384.033461	-788.138636	39.238997	440.037607	
658	3.285000	-153.621361	1556.678075	420.319887	-327.717923	1611.818425	337.237641	-290.000268	1585.406584	455.844968	-432.535530	1485.958308	380.827947	-599.654174	1169.292960	365.544369	-329.222765	1350.639728	354.339154	-372.049110	1430.523073	215.027897	-508.020881	1317.477500	107.176780	-493.153722	1270.886001	110.553402	-547.785745	1265.021227	85.097050	-628.136932	1185.268681	60.101120	-662.194376	1181.521443	129.020769	-646.017619	921.647639	74.793157	-710.211363	935.070184	39.092937	-650.789499	848.040808	31.840505	-356.352205	1430.200031	522.993023	-426.843000	1291.856291	618.873834	-401.237127	1252.249689	616.476289	-454.252946	1234.114952	649.833295	-477.802374	1100.649661	679.663509	-503.749680	1079.979198	616.168835	-239.230256	1039.463314	587.952805	-246.400595	990.634121	636.900317	-167.199204	1054.785134	621.620366	-485.075093	956.522176	469.473010	-638.954600	1090.028605	364.929440	-650.655240	1057.967506	338.452400	-648.429368	1060.918183	397.491602	-464.777154	760.231770	162.108637	-393.564901	712.608271	160.928337	-356.482328	736.662130	177.235801	-389.995161	650.308948	162.036089	-435.422869	464.226384	218.500451	-493.413061	510.577661	172.950784	-486.193376	474.654156	195.031841	-563.187603	454.846131	229.019258	-723.107469	473.447843	225.504142	-781.547577	540.521479	274.390126	-748.985777	321.683435	293.958907	-744.809250	320.165834	245.968352	-565.017595	715.396336	536.794863	-536.045118	657.526272	534.040090	-503.348996	651.682640	524.330982	-575.658922	583.651878	511.120739	-572.560191	473.620543	491.228771	-658.510030	283.419930	426.529062	-760.106528	258.125746	459.456077	-726.797548	232.028236	439.993603	-750.896791	196.582652	401.997796	-854.726593	153.056369	427.985975	-941.336843	150.788248	381.549809	-744.878529	55.391823	343.662246	-744.257306	54.510836	384.447415	-786.527784	40.302099	440.391302	
659	3.290000	-125.692539	1560.945117	419.151123	-299.832605	1616.085437	336.047454	-262.094999	1589.613996	454.630181	-404.977071	1489.920547	379.943589	-569.982120	1172.245834	366.671791	-301.413183	1355.374985	352.676358	-346.578592	1434.930875	213.407799	-485.072613	1323.781194	106.406684	-470.644739	1276.914051	109.128180	-525.651669	1271.943993	84.250473	-607.186737	1193.411472	59.702433	-640.502660	1189.760461	128.823932	-628.319023	930.062231	72.373811	-692.812196	944.918922	37.694972	-635.316991	856.472185	28.709790	-327.843850	1435.606122	521.372778	-395.074837	1296.143118	617.772764	-368.833349	1257.123351	615.034590	-420.623320	1237.766754	648.490746	-442.235546	1103.942183	678.321682	-468.293091	1083.126292	614.697893	-201.992984	1055.551939	582.182991	-206.489786	1006.209699	630.694444	-130.489337	1073.800897	615.402338	-455.052600	958.056425	469.657819	-608.604157	1093.019243	366.273075	-620.718330	1061.132086	339.775030	-618.034606	1063.811728	398.797529	-429.968390	767.704724	163.036501	-357.060184	722.677881	162.731067	-320.991640	748.305542	179.046041	-351.138310	660.522530	164.531198	-388.592665	469.885551	219.858616	-449.049735	512.999538	174.480811	-439.674559	477.309072	196.227324	-515.625561	452.528854	229.419248	-676.582040	460.916586	224.633067	-739.669303	523.618836	273.511201	-692.189862	307.366599	291.888479	-687.761635	306.377192	243.967353	-541.446512	717.605711	536.511530	-514.389229	658.768416	533.534864	-481.960339	652.020849	523.744209	-556.593385	586.208882	511.505818	-557.635422	476.323077	491.739757	-647.708975	287.406673	428.392327	-749.693837	264.518745	461.396028	-716.813096	237.409097	442.343710	-741.390518	201.781464	404.546568	-846.376578	160.249319	430.374967	-932.414580	162.115628	384.060965	-742.991170	55.715622	344.108426	-742.279407	54.790576	384.986795	-784.689555	41.668142	440.882277	
